<svg xmlns="http://www.w3.org/2000/svg" width="995.3342" height="293.1601" viewBox="0 0 995.3342 293.1601">
  <g id="Layer_2" data-name="Layer 2">
    <g id="Layer_1-2" data-name="Layer 1">
      <g>
        <g>
          <path d="M25.49,18.2806q4.7373,12.4172,4.737,67.9517l-.5071,35.16,3.8215.8831a97.146,97.146,0,0,0,22.061,2.678c.8071,0,1.6028-.0151,2.3926-.0381q-.849-17.5077-.8493-44.01,0-40,2.6315-52.1822Q62.4064,16.5418,67.5217,11.73q5.111-4.8114,15.79-5.8651,4.811-.4512,4.812-3.1579T81.6575,0H6.3161Q0,0,0,3.0756,0,5.5641,5.1131,5.5639,20.7515,5.8671,25.49,18.2806Z" style="fill: #4d4d4d"/>
          <path d="M151.7358,6.1656q13.8339,0,20.903,10.6017,7.0668,10.6022,7.0681,44.7387,0,34.8255-1.1414,56.83,4.433,1.8233,9.0142,4.02,1.4487-20.3442,1.4507-46.5634,0-28.2708,1.6544-42.8588,1.6527-14.5849,6.9928-20.1514,5.3356-5.5615,16.7673-7.2183,3.3063-.4508,3.3085-2.5566,0-3.0063-4.06-3.0073H153.54q-7.37,0-7.3686,3.0073Q146.1716,6.1656,151.7358,6.1656Z" style="fill: #4d4d4d"/>
          <path d="M135.7976,126.0119c-28.5572,0-47.6337,15.7946-80.1954,15.7946a113.997,113.997,0,0,1-25.6869-3.0741q1.0791,19.4364,6.2519,30.3484,6.5414,13.77,24.9634,22.1225,18.4194,8.3536,44.5882,8.3533,25.5639,0,43.0843-7.4438,17.5175-7.4439,26.2417-19.55,7.8957-10.9593,10.796-32.23C165.31,129.6317,149.466,126.0119,135.7976,126.0119Z" style="fill: #a5bc39"/>
        </g>
        <g>
          <path d="M334.4489,41.8192c-8.0475-7.257-23.8164-10.9368-46.8731-10.9368l-34.8689.22-21.7206-.11c-3.3721,0-4.08,1.4433-4.08,2.6541,0,1.7691,2.3588,2.9525,7.8887,3.9578,4.2389.7642,6.9952,2.5423,8.4258,5.4358,1.4742,2.9807,2.2215,10.0716,2.2215,21.067l-.3289,31.5789.3289,29.2514c0,10.02-.221,18.984-.6571,26.6412-.4265,7.4989-1.5652,12.4145-3.384,14.61-1.8151,2.19-5.1189,3.8325-9.81,4.8814-1.1857.25-4.7942,1.011-4.7942,3.4048a2.2633,2.2633,0,0,0,1.2772,2.1957c.3416.16.9782.4588,13.8778.4588l30.1645.11c6.8391,0,10.6874-.0937,11.764-.2861a2.4586,2.4586,0,0,0,2.1871-2.5874c0-2.7138-4.353-2.998-5.7967-3.0921a14.4984,14.4984,0,0,1-7.9619-2.9194,13.02,13.02,0,0,1-4.7727-5.5627c-.7341-1.9573-1.2339-7.0569-1.4853-15.1572-.2545-8.1428-.3837-13.5405-.3837-16.0434,0-3.2522.11-6.5186.327-9.7091.4022-6.03.6224-10.7382.6555-14.017,6.2989.4018,11.9348.6054,16.7637.6054,20.892,0,36.7888-3.2823,47.2487-9.7558C341.2444,92.1642,346.61,82.2473,346.61,69.2374A35.5435,35.5435,0,0,0,334.4489,41.8192Zm-67.9042,1.7961c0-.6073.032-2.0961.0929-4.3229a72.8334,72.8334,0,0,1,18.9689-2.2238c14.2619,0,24.2383,2.8122,29.6517,8.3579a28.2519,28.2519,0,0,1,8.1659,20.4176,46.6059,46.6059,0,0,1-4.48,19.3816,24.9273,24.9273,0,0,1-13.99,13.3892,57.1433,57.1433,0,0,1-20.7724,3.7785c-1.4256,0-7.3265-.1754-17.543-.5209-.0621-2.9159-.0933-5.0132-.0933-6.2306l.4384-26.8552Z" style="fill: #4d4d4d"/>
          <path d="M483.671,129.9227c-1.5046,0-2.739,1.1221-3.6752,3.3509-2.5843,6.529-7.8833,14.0456-15.7492,22.341-7.8,8.2265-16.7112,13.0889-26.4866,14.4528-12.49.4353-19.075.6559-19.5728.6559-6.1365,0-10.39-1.0207-12.6424-3.0347a14.6779,14.6779,0,0,1-4.5389-6.92c-.7443-2.6217-1.1218-8.4535-1.1218-17.3386l-.2194-28.9363.8777-51.8913c0-7.61.5506-12.7642,1.6369-15.3207,1.06-2.4972,3.2753-4.7522,6.5841-6.7026A24.5879,24.5879,0,0,1,421.36,37.6169c3.4542,0,3.97-1.7317,3.97-2.764,0-1.114-.4874-2.9834-3.7647-2.983l-19.29.3289c-15.4924,0-29.2029-.3686-40.76-1.0959-1.4606-.0755-2.38-.1106-2.8928-.1106-3.4542,0-3.97,1.7626-3.97,2.8137,0,1.2517.7326,2.8141,4.2343,3.15a21.9877,21.9877,0,0,1,11.6,4.3985,18.4638,18.4638,0,0,1,6.7241,11.1235c1.1152,4.9708,1.6808,13.8867,1.6808,26.4978l-.11,39.2983c0,21.2848-.511,34.5071-1.5186,39.2994-.9856,4.6812-2.8256,8.3086-5.4693,10.7814-2.6295,2.4575-7.446,3.9189-14.2943,4.3427-3.35.113-4.0535,1.5054-4.0535,2.6541,0,2.0629,2.8165,2.983,9.1322,2.983,1.409,0,5.2658-.18,11.7906-.55,7.9411-.4523,10.4479-.5472,11.1528-.5472h27.8825c22.3114,0,37.186.1288,44.2117.3833,7.0924.2553,12.0512.3845,14.7393.3845.5213,0,2.4848-.07,6.1793-.22l.5761-.0231.153-.5561c.5156-1.87,1.7927-8.9822,3.9047-21.7425,2.115-12.78,3.1434-20.0155,3.1434-22.12C486.3116,130.3673,484.6574,129.9227,483.671,129.9227Z" style="fill: #4d4d4d"/>
          <path d="M638.1079,172.7007c-7.3195-.632-12.6994-3.804-15.9909-9.4288-3.4029-5.8141-9.7943-21.8393-18.9956-47.63C588.8125,75.296,577.43,46.3747,569.2887,29.6808l-.2164-.4434h-6.069l-.2113.46C552.5847,51.9112,543.0453,75.4765,534.4387,99.74c-9.3925,26.6193-16.4016,45.311-20.833,55.5564-4.3218,9.9887-10.6072,15.5872-18.69,16.6419-3.0984.4434-3.7489,1.8624-3.7489,2.9753,0,1.26.745,2.762,4.3473,2.762h.0066c4.1953-.29,12.5166-.4369,24.7329-.4369,2.4042,0,9.5148.258,21.1334.767l.2271.01.1978-.1122a2.7654,2.7654,0,0,0,1.7155-2.2889c0-1.9006-1.61-2.9915-4.8-3.2441a24.6577,24.6577,0,0,1-10.7857-3.4777,9.9261,9.9261,0,0,1-5.2527-9.293c0-5.1282,3.7627-17.7574,11.1836-37.5376,28.4355-.4126,45.2011-.6309,49.8893-.649l6.2815,18.3373c4.4028,12.4372,6.635,20.2827,6.635,23.3177,0,3.0313-1.0476,5.1822-3.2032,6.5753-2.2592,1.4595-6.4758,2.4883-12.561,3.0609-2.6533.3459-3.21,1.5714-3.21,2.5381,0,1.2609.7268,2.764,4.19,2.764l.0886-.005c4.4765-.5059,14.779-.7628,30.6215-.7628,10.3238,0,18.9358.2943,25.6087.8754l1.5917.1118c2.3958,0,2.6545-1.6261,2.6545-2.3252C642.4579,174.6206,641.7037,173.0269,638.1079,172.7007ZM581.2265,113.67l-29.6941-.5279c-3.1056,0-8.1844.1658-15.1075.4932,8.5168-24.7487,16.1174-44.1376,22.6121-57.6865,2.0885,5.5839,5.8458,15.1688,11.1894,28.5462C574.871,96.4378,578.5682,106.2445,581.2265,113.67Z" style="fill: #4d4d4d"/>
          <path d="M807.28,32.8536,790.06,32.7471c-6.27,0-14.1027.1662-23.28.494-14.0032.5-14.7127.8765-15.0925,1.0781a2.445,2.445,0,0,0-1.3531,2.2886c0,1.7614,1.7418,2.6545,5.1768,2.6545a22.4686,22.4686,0,0,1,15.2208,5.29,20.1033,20.1033,0,0,1,7.028,13.0453c.6513,5.3163.9814,16.004.9814,31.7659,0,19.978-.3335,36.6329-.9922,49.5506l-32.4982-37.563L710.1513,60.6574c-10.7537-12.35-18.416-21.5964-22.7745-27.4807l-.2348-.317-32.6456-.2221c-3.726,0-5.6155.9667-5.6155,2.8735,0,2.24,3.3316,2.63,4.4155,2.7571,5.3121.7,10.1345,3.898,14.3325,9.5062,4.2744,5.7131,7.0558,10.6137,8.2677,14.565,1.2139,3.9655,1.8212,17.4119,1.8046,39.985l.9027,38.4785c0,12.7064-1.4595,21.0893-4.338,24.9161-2.8272,3.7573-8.6668,5.6625-17.3567,5.6625-3.644,0-4.409,1.6223-4.409,2.9834,0,1.2108.7839,2.6541,4.5173,2.6541l52.7574.11c3.2167,0,4.8478-.93,4.8478-2.764,0-3.4218-6.0428-3.4218-8.0286-3.4218a16.4741,16.4741,0,0,1-9.6871-3.2541,22.0157,22.0157,0,0,1-6.4639-6.4951c-.8371-1.4583-2.137-6.5155-3.5726-22.3267-1.1626-12.7808-1.7518-30.1372-1.7518-51.5978l-.219-16.99c0-2.6753.37-3.3462.4777-3.4846.3679.0366,1.2575.4284,2.6592,2.8989,1.9488,3.3,8.118,10.45,18.8559,21.8525,2.8072,3.0227,9.7346,11.24,20.5847,24.4178,4.9495,6.1149,11.8387,14.2045,20.4758,24.0439,8.609,9.8082,15.9671,18.3462,21.87,25.3772,8.9834,10.7047,9.7234,11.0876,10.0789,11.2716a4.2736,4.2736,0,0,0,1.8779.5818c1.9557,0,2.9471-1.7429,2.9471-5.1655l1.0782-57.9714c0-32.5337.3119-51.8932.9273-57.5411.5966-5.4867,2.4694-9.7345,5.567-12.6246,3.11-2.9036,8.3267-4.773,15.5043-5.5558,3.03-.3262,3.6663-1.71,3.6663-2.8141C811.47,34.3285,810.7423,32.8536,807.28,32.8536Z" style="fill: #4d4d4d"/>
          <path d="M952.82,52.8162C938.1107,38.8443,916.1182,31.76,887.44,31.76l-22.5871.4388c-8.8611,0-17.1207-.3131-24.55-.93-7.6-.6289-12.0161-.9351-13.5007-.9351a2.8156,2.8156,0,0,0-3.0925,3.0933c0,2.55,3.9771,3.1176,5.275,3.3027,4.0612.6305,7.04,1.8,8.8527,3.477,1.7907,1.6577,3.1481,5.5639,4.0326,11.6093a134.6361,134.6361,0,0,1,1.3628,19.3457l-1.7553,58.0674c-.5792,20.0367-2.0345,32.0929-4.3257,35.8337-2.2357,3.6478-6.1966,5.8869-11.764,6.6535a68.4861,68.4861,0,0,0-8.2611,1.3142,2.4669,2.4669,0,0,0-1.8625,2.46c0,1.1973.7651,2.6252,4.409,2.6252l.0949-.0058c4.1837-.5059,18.3955-.7623,42.2412-.7623,1.2894,0,7.3935.4419,18.15,1.3141,6.0586.438,11.1331.66,15.0832.66,17.6,0,31.8948-2.8727,42.4888-8.5387,10.6018-5.668,19.557-14.1921,26.6182-25.3353,7.0673-11.1547,10.6511-24.4521,10.6511-39.523C975.0013,84.6677,967.5383,66.8,952.82,52.8162Zm-3.5275,53.109a80.8291,80.8291,0,0,1-6.8961,33.0218,62.4356,62.4356,0,0,1-19.1151,24.8085c-8.083,6.1519-18.8082,9.2714-31.877,9.2714-9.0925,0-15.7588-1.3057-19.8123-3.8807a17.79,17.79,0,0,1-7.8956-9.7669c-1.2493-4.0319-1.8833-10.9091-1.8833-20.4408,0-2.0371.2214-10.1841.6571-24.2131l.9871-30.1591c.2183-5.966.6972-14.371,1.4252-24.98.51-7.3095.7689-12.4572.7689-15.3007,0-2.8473.6633-4.5562,1.9712-5.08,1.062-.4246,4.8879-.93,17.0915-.93,22.0063,0,38.4361,7.0157,48.8335,20.8526A76.3693,76.3693,0,0,1,949.2924,105.9252Z" style="fill: #4d4d4d"/>
        </g>
      </g>
      <g>
        <path d="M248.5356,241.5615h28.9215v6.5H255.84v15.5563h20.8871v6.5365H255.84v15.8484h22.3119v6.5h-29.616Z" style="fill: #a5bc39"/>
        <path d="M353.8731,241.5615H362.7l-20.4093,24.6057,21.8331,26.4087h-8.8214L337.9266,271.43l-17.5377,21.1463h-8.9225l21.9542-26.4116-20.3841-24.6028h8.913l16.0118,19.4836Z" style="fill: #a5bc39"/>
        <path d="M434.9477,241.5615h7.303v51.0144h-7.303V270.3735H406.282v22.2024h-7.3041V241.5615h7.3041v22.0564h28.6657Z" style="fill: #a5bc39"/>
        <path d="M483.03,241.5615h7.304v51.0144H483.03Z" style="fill: #a5bc39"/>
        <path d="M548.3848,292.5759H531.1123V241.5615h13.3653q6.3169,0,9.859,1.698a12.2062,12.2062,0,0,1,7.2672,11.5577q0,7.5231-7.7775,10.7725a15.7869,15.7869,0,0,1,8.8919,4.6012,11.99,11.99,0,0,1,3.3042,8.472,12.4494,12.4494,0,0,1-2.0078,6.9747,14.6123,14.6123,0,0,1-5.8981,5.0028A21.7517,21.7517,0,0,1,548.3848,292.5759Zm-3.6883-44.5143h-6.2812v15.3371h4.8574q5.8419,0,8.3069-2.2276a7.4155,7.4155,0,0,0,2.4655-5.77Q554.0451,248.0616,544.6965,248.0616Zm.5482,21.8372h-6.8294v16.177H545.61q5.9886,0,8.1248-.9312a7.7308,7.7308,0,0,0,3.4326-2.9031,7.5714,7.5714,0,0,0,1.2964-4.2359,7.232,7.232,0,0,0-1.37-4.2725,8.1118,8.1118,0,0,0-3.8882-2.8849A24.3619,24.3619,0,0,0,545.2447,269.8988Z" style="fill: #a5bc39"/>
        <path d="M603.2865,241.5615h7.3041v51.0144h-7.3041Z" style="fill: #a5bc39"/>
        <path d="M645.9542,241.4885h42.6151v6.5H670.7854v44.5873h-7.34V247.9886H645.9542Z" style="fill: #a5bc39"/>
        <path d="M733.2134,271.2014l-5.55-3.3721a25.2046,25.2046,0,0,1-7.4313-6.2747,11.8851,11.8851,0,0,1-2.21-7.1025,12.5458,12.5458,0,0,1,4.1819-9.7867,15.6255,15.6255,0,0,1,10.8639-3.7612A20.5558,20.5558,0,0,1,744.79,244.492v8.2894q-5.515-5.3038-11.8678-5.3041a9.8178,9.8178,0,0,0-5.8792,1.6553,5.0206,5.0206,0,0,0-2.3014,4.237,6.5262,6.5262,0,0,0,1.6952,4.2925,21.302,21.302,0,0,0,5.45,4.2012l5.5783,3.3008q9.3333,5.575,9.3339,14.1926a13.0136,13.0136,0,0,1-4.1082,9.9691,15.0288,15.0288,0,0,1-10.6819,3.8343,22.4348,22.4348,0,0,1-13.7673-4.6468v-9.2754q5.916,7.4959,13.6947,7.4952a8.6027,8.6027,0,0,0,5.715-1.91,5.9886,5.9886,0,0,0,2.2825-4.7848Q739.9334,275.38,733.2134,271.2014Z" style="fill: #a5bc39"/>
      </g>
      <path d="M966.9075,32.6145a14.28,14.28,0,0,1,21.4225-12.28,13.7288,13.7288,0,0,1,5.1463,5.22,14.4389,14.4389,0,0,1-.0562,14.2694,13.8244,13.8244,0,0,1-5.2016,5.155,14.2043,14.2043,0,0,1-21.311-12.3644Zm2.6147,0A11.38,11.38,0,0,0,971.1,38.4793a11.5077,11.5077,0,0,0,4.23,4.221,11.34,11.34,0,0,0,5.7716,1.5315,11.7063,11.7063,0,0,0,10.1227-5.8086,11.5623,11.5623,0,0,0-.0187-11.5986,11.6532,11.6532,0,0,0-10.104-5.8087,11.612,11.612,0,0,0-11.58,11.5986Zm12.9622-7.4709a4.96,4.96,0,0,1,3.3991,1.1487A3.8016,3.8016,0,0,1,987.191,29.29a4.1377,4.1377,0,0,1-1.139,2.97,4.5244,4.5244,0,0,1-3.0445,1.3448v.0747a4.0064,4.0064,0,0,1,1.5033.9432,14.3118,14.3118,0,0,1,1.8775,2.6989l1.7927,3.0257h-3.4365l-.71-1.3447a22.3264,22.3264,0,0,0-1.7276-3.0164,6.2679,6.2679,0,0,0-1.41-1.55,2.9574,2.9574,0,0,0-1.6621-.4016h-1.27v6.3129h-2.7832V25.1436Zm-1.0833,6.5931a3.3737,3.3737,0,0,0,2.1009-.57,1.9213,1.9213,0,0,0,.7381-1.6156,1.8381,1.8381,0,0,0-.7751-1.5968,3.4939,3.4939,0,0,0-2.0639-.551h-3.4365v4.3331Z" style="fill: #4d4d4d"/>
    </g>
  </g>
</svg>
