<svg id="Layer_1" data-name="Layer 1" xmlns="http://www.w3.org/2000/svg" viewBox="0 0 193.42 188.45"><defs><style>.cls-1{fill:#808285;}.cls-2{fill:#b6b8ba;}.cls-3{fill:#fff;}.cls-4{fill:#a6bd39;}</style></defs><title>Artboard 10 copy 7</title><path class="cls-1" d="M19.31,169.4h154.8a1.53,1.53,0,0,0,1.55-1.54,1.42,1.42,0,0,0-1.55-1.55H146.63v-50.7a7.35,7.35,0,0,0-7.35-7.35h-4.64c-1.36-5.42-8.13-10.84-16.26-14.9A38.55,38.55,0,0,0,123,74.59V70.91a9.35,9.35,0,0,0,8.12-9.09,9.13,9.13,0,0,0-8.7-9.09,25.85,25.85,0,0,0-4.07-8.33c5.61-7.74,3.87-25.92-12-25.34,4.25,12.38-18.77,7-24.77,7C76,26,66.52,31.63,73.88,44.4c.19.39.38.59.58,1A24.51,24.51,0,0,0,71,52.53a9.13,9.13,0,0,0-.59,18.19V74.4A38,38,0,0,0,75,93.17c-8.13,4.06-14.9,9.48-16.26,14.9H54.14a7.34,7.34,0,0,0-7.35,7.35v50.69H19.31a1.53,1.53,0,0,0-1.55,1.55A1.71,1.71,0,0,0,19.31,169.4ZM123.41,65.3V55.82A6.28,6.28,0,0,1,128.25,62a6.43,6.43,0,0,1-4.84,6.19ZM70,59.5V68a6.27,6.27,0,0,1-4.84-6.19A6.43,6.43,0,0,1,70,55.63ZM73.1,67V59.5a21.45,21.45,0,0,1,3.68-12c8.9,6,31.35,5.42,39.47-.77a21.51,21.51,0,0,1,4.26,12.77V67a53.37,53.37,0,0,1-9.29,5.81c-3.67,1.55-8.32-1.74-14.32-1.74S86.26,74.4,82.59,72.85A50.31,50.31,0,0,1,73.1,67Zm32.32,10.65c0,2.9-3.87,5.22-8.71,5.22S88,80.59,88,77.69s3.87-4.07,8.71-4.07S105.42,74.78,105.42,77.69ZM76.59,95.87c4.83,7,12,11,20.12,11s15.29-4.06,20.12-11c7.55,3.68,13.36,8.33,14.9,12.39H61.88C63.43,104.2,69,99.55,76.59,95.87ZM49.88,115.61a4.3,4.3,0,0,1,4.26-4.26h85.14a4.3,4.3,0,0,1,4.26,4.26v50.7H49.88Z"/><circle class="cls-1" cx="96.71" cy="134.96" r="4.84"/><circle class="cls-1" cx="87.04" cy="60.46" r="2.9"/><circle class="cls-1" cx="106.39" cy="60.46" r="2.9"/><path class="cls-1" d="M90.71,75.94a1.53,1.53,0,0,0,.2,2.13,9.39,9.39,0,0,0,6.57,2.33,10.42,10.42,0,0,0,4.84-1.17A1.43,1.43,0,0,0,101,76.72a7.66,7.66,0,0,1-8.13-.78A1.52,1.52,0,0,0,90.71,75.94Z"/><rect class="cls-2" x="52.78" y="114.52" width="87.58" height="49.08"/><path class="cls-1" d="M84,139.8a12.6,12.6,0,1,0,12.6-12.6A12.6,12.6,0,0,0,84,139.8"/><path class="cls-3" d="M92.6,139.28a23.35,23.35,0,0,1,.21-4,2.5,2.5,0,0,1,.59-1.3,2,2,0,0,1,1.21-.45c.25,0,.37-.1.37-.24s-.17-.21-.5-.21H88.71c-.33,0-.49.08-.49.24s.13.19.39.19a1.53,1.53,0,0,1,1.57,1,21.06,21.06,0,0,1,.36,5.21l0,2.45a1.53,1.53,0,0,0,0,.39,10.42,10.42,0,0,0,2.2-.37,19.27,19.27,0,0,1-.14-2.88"/><path class="cls-3" d="M104.61,133.08H100c-.38,0-.57.08-.57.23s.14.24.43.24a1.8,1.8,0,0,1,1.6.82,7.06,7.06,0,0,1,.54,3.43c0,2.16,0,2.34,0,3.53a5.86,5.86,0,0,0,.69.16,20,20,0,0,0,.07-2.6c0-1.44,0-2.54.12-3.28a2.75,2.75,0,0,1,.54-1.55,2.15,2.15,0,0,1,1.29-.55c.17,0,.25-.09.25-.2s-.1-.23-.31-.23"/><path class="cls-4" d="M97.83,141.64c-2.28,0-2.72,1.33-5,2a9.66,9.66,0,0,1-2.19.38h0c.1,3.39,2.69,4.35,6.16,4.34,4.88,0,5.75-2.78,5.87-5.4h0a5.74,5.74,0,0,1-.68-.15c-1.4-.41-2.09-1.18-4-1.18"/></svg>