<?xml version="1.0" encoding="utf-8"?>
<!-- Generator: Adobe Illustrator 25.1.0, SVG Export Plug-In . SVG Version: 6.00 Build 0)  -->
<svg version="1.1" id="Layer_1" xmlns="http://www.w3.org/2000/svg" xmlns:xlink="http://www.w3.org/1999/xlink" x="0px" y="0px"
	 viewBox="0 0 995.3 199.6" style="enable-background:new 0 0 995.3 199.6;" xml:space="preserve">
<style type="text/css">
	.st0{fill:#6D6E71;}
	.st1{fill:#A5BC39;}
</style>
<path class="st0" d="M25.5,18.3c3.2,8.3,4.7,30.9,4.7,68l-0.5,35.2l3.8,0.9c7.2,1.7,14.6,2.6,22.1,2.7c0.8,0,1.6,0,2.4,0
	c-0.6-11.7-0.8-26.3-0.8-44c0-26.7,0.9-44.1,2.6-52.2c1.8-8.1,4.3-13.8,7.7-17c3.4-3.2,8.7-5.2,15.8-5.9c3.2-0.3,4.8-1.4,4.8-3.2
	C88.1,0.9,86,0,81.7,0H6.3C2.1,0,0,1,0,3.1c0,1.7,1.7,2.5,5.1,2.5C15.5,5.8,22.3,10,25.5,18.3z"/>
<path class="st0" d="M151.7,6.2c9.2,0,16.2,3.5,20.9,10.6c4.7,7.1,7.1,22,7.1,44.7c0,23.2-0.4,42.2-1.1,56.8c3,1.2,6,2.6,9,4
	c1-13.6,1.4-29.1,1.5-46.6c0-18.8,0.6-33.1,1.7-42.9c1.1-9.7,3.4-16.4,7-20.2c3.6-3.7,9.1-6.1,16.8-7.2c2.2-0.3,3.3-1.2,3.3-2.6
	c0-2-1.4-3-4.1-3h-60.2c-4.9,0-7.4,1-7.4,3C146.2,5.1,148,6.2,151.7,6.2z"/>
<path class="st1" d="M135.8,126c-28.6,0-47.6,15.8-80.2,15.8c-8.7,0-17.3-1.1-25.7-3.1c0.7,13,2.8,23.1,6.3,30.3
	c4.4,9.2,12.7,16.6,25,22.1c12.3,5.6,27.1,8.4,44.6,8.4c17,0,31.4-2.5,43.1-7.4c11.7-5,20.4-11.5,26.2-19.6
	c5.3-7.3,8.9-18,10.8-32.2C165.3,129.6,149.5,126,135.8,126z"/>
<g>
	<path class="st0" d="M334.4,41.8c-8-7.3-23.8-10.9-46.9-10.9l-34.9,0.2L231,31c-3.4,0-4.1,1.4-4.1,2.7c0,1.8,2.4,3,7.9,4
		c4.2,0.8,7,2.5,8.4,5.4c1.5,3,2.2,10.1,2.2,21.1l-0.3,31.6l0.3,29.3c0,10-0.2,19-0.7,26.6c-0.4,7.5-1.6,12.4-3.4,14.6
		c-1.8,2.2-5.1,3.8-9.8,4.9c-1.2,0.2-4.8,1-4.8,3.4c-0.1,0.9,0.4,1.8,1.3,2.2c0.3,0.2,1,0.5,13.9,0.5l30.2,0.1
		c6.8,0,10.7-0.1,11.8-0.3c1.3-0.1,2.3-1.3,2.2-2.6c0-2.7-4.4-3-5.8-3.1c-2.9-0.2-5.7-1.2-8-2.9c-2.1-1.4-3.7-3.3-4.8-5.6
		c-0.7-2-1.2-7.1-1.5-15.2c-0.3-8.1-0.4-13.5-0.4-16c0-3.3,0.1-6.5,0.3-9.7c0.4-6,0.6-10.7,0.7-14c6.3,0.4,11.9,0.6,16.8,0.6
		c20.9,0,36.8-3.3,47.2-9.8c10.6-6.6,15.9-16.5,15.9-29.5C346.8,58.8,342.3,48.7,334.4,41.8z M266.5,43.6c0-0.6,0-2.1,0.1-4.3
		c6.2-1.6,12.6-2.3,19-2.2c14.3,0,24.2,2.8,29.7,8.4c5.4,5.4,8.3,12.8,8.2,20.4c-0.1,6.7-1.6,13.3-4.5,19.4c-2.7,6.2-7.7,11-14,13.4
		c-6.6,2.5-13.7,3.8-20.8,3.8c-1.4,0-7.3-0.2-17.5-0.5c-0.1-2.9-0.1-5-0.1-6.2l0.4-26.9L266.5,43.6z"/>
	<path class="st0" d="M483.7,129.9c-1.5,0-2.7,1.1-3.7,3.4c-2.6,6.5-7.9,14-15.7,22.3c-7.8,8.2-16.7,13.1-26.5,14.5
		c-12.5,0.4-19.1,0.7-19.6,0.7c-6.1,0-10.4-1-12.6-3c-2.1-1.8-3.7-4.2-4.5-6.9c-0.7-2.6-1.1-8.5-1.1-17.3l-0.2-28.9l0.9-51.9
		c0-7.6,0.6-12.8,1.6-15.3c1.1-2.5,3.3-4.8,6.6-6.7c3.9-2.1,8.2-3.1,12.6-3c3.5,0,4-1.7,4-2.8c0-1.1-0.5-3-3.8-3l-19.3,0.3
		c-15.5,0-29.2-0.4-40.8-1.1c-1.5-0.1-2.4-0.1-2.9-0.1c-3.5,0-4,1.8-4,2.8c0,1.3,0.7,2.8,4.2,3.2c4.2,0.3,8.2,1.8,11.6,4.4
		c3.5,2.8,5.9,6.7,6.7,11.1c1.1,5,1.7,13.9,1.7,26.5l-0.1,39.3c0,21.3-0.5,34.5-1.5,39.3c-1,4.7-2.8,8.3-5.5,10.8
		c-2.6,2.5-7.4,3.9-14.3,4.3c-3.4,0.1-4.1,1.5-4.1,2.7c0,2.1,2.8,3,9.1,3c1.4,0,5.3-0.2,11.8-0.6c7.9-0.5,10.4-0.5,11.2-0.5h27.9
		c22.3,0,37.2,0.1,44.2,0.4c7.1,0.3,12.1,0.4,14.7,0.4c0.5,0,2.5-0.1,6.2-0.2l0.6,0l0.2-0.6c0.5-1.9,1.8-9,3.9-21.7
		c2.1-12.8,3.1-20,3.1-22.1C486.3,130.4,484.7,129.9,483.7,129.9z"/>
	<path class="st0" d="M638.1,172.7c-7.3-0.6-12.7-3.8-16-9.4c-3.4-5.8-9.8-21.8-19-47.6c-14.3-40.3-25.7-69.3-33.8-86l-0.2-0.4H563
		l-0.2,0.5c-10.2,22.2-19.7,45.8-28.4,70c-9.4,26.6-16.4,45.3-20.8,55.6c-4.3,10-10.6,15.6-18.7,16.6c-3.1,0.4-3.7,1.9-3.7,3
		c0,1.3,0.7,2.8,4.3,2.8h0c4.2-0.3,12.5-0.4,24.7-0.4c2.4,0,9.5,0.3,21.1,0.8l0.2,0l0.2-0.1c1-0.4,1.6-1.3,1.7-2.3
		c0-1.9-1.6-3-4.8-3.2c-3.8-0.3-7.5-1.5-10.8-3.5c-3.4-1.8-5.5-5.4-5.3-9.3c0-5.1,3.8-17.8,11.2-37.5c28.4-0.4,45.2-0.6,49.9-0.6
		l6.3,18.3c4.4,12.4,6.6,20.3,6.6,23.3c0,3-1,5.2-3.2,6.6c-2.3,1.5-6.5,2.5-12.6,3.1c-2.7,0.3-3.2,1.6-3.2,2.5
		c0,1.3,0.7,2.8,4.2,2.8l0.1,0c4.5-0.5,14.8-0.8,30.6-0.8c10.3,0,18.9,0.3,25.6,0.9l1.6,0.1c2.4,0,2.7-1.6,2.7-2.3
		C642.5,174.6,641.7,173,638.1,172.7z M581.2,113.7l-29.7-0.5c-3.1,0-8.2,0.2-15.1,0.5c8.5-24.7,16.1-44.1,22.6-57.7
		c2.1,5.6,5.8,15.2,11.2,28.5C574.9,96.4,578.6,106.2,581.2,113.7z"/>
	<path class="st0" d="M807.3,32.9l-17.2-0.1c-6.3,0-14.1,0.2-23.3,0.5c-14,0.5-14.7,0.9-15.1,1.1c-0.9,0.4-1.4,1.3-1.4,2.3
		c0,1.8,1.7,2.7,5.2,2.7c5.6-0.2,11,1.7,15.2,5.3c3.9,3.3,6.4,8,7,13c0.7,5.3,1,16,1,31.8c0,20-0.3,36.6-1,49.6l-32.5-37.6
		l-35.1-40.7c-10.8-12.4-18.4-21.6-22.8-27.5l-0.2-0.3l-32.6-0.2c-3.7,0-5.6,1-5.6,2.9c0,2.2,3.3,2.6,4.4,2.8
		c5.3,0.7,10.1,3.9,14.3,9.5c4.3,5.7,7.1,10.6,8.3,14.6c1.2,4,1.8,17.4,1.8,40l0.9,38.5c0,12.7-1.5,21.1-4.3,24.9
		c-2.8,3.8-8.7,5.7-17.4,5.7c-3.6,0-4.4,1.6-4.4,3c0,1.2,0.8,2.7,4.5,2.7l52.8,0.1c3.2,0,4.8-0.9,4.8-2.8c0-3.4-6-3.4-8-3.4
		c-3.5,0-6.9-1.2-9.7-3.3c-2.6-1.7-4.8-3.9-6.5-6.5c-0.8-1.5-2.1-6.5-3.6-22.3c-1.2-12.8-1.8-30.1-1.8-51.6l-0.2-17
		c0-2.7,0.4-3.3,0.5-3.5c0.4,0,1.3,0.4,2.7,2.9c1.9,3.3,8.1,10.4,18.9,21.9c2.8,3,9.7,11.2,20.6,24.4c4.9,6.1,11.8,14.2,20.5,24
		c8.6,9.8,16,18.3,21.9,25.4c9,10.7,9.7,11.1,10.1,11.3c0.6,0.3,1.2,0.5,1.9,0.6c2,0,2.9-1.7,2.9-5.2l1.1-58
		c0-32.5,0.3-51.9,0.9-57.5c0.6-5.5,2.5-9.7,5.6-12.6c3.1-2.9,8.3-4.8,15.5-5.6c3-0.3,3.7-1.7,3.7-2.8
		C811.5,34.3,810.7,32.9,807.3,32.9z"/>
	<path class="st0" d="M952.8,52.8c-14.7-14-36.7-21.1-65.4-21.1l-22.6,0.4c-8.9,0-17.1-0.3-24.5-0.9c-7.6-0.6-12-0.9-13.5-0.9
		c-1.5-0.2-2.9,1-3.1,2.5c0,0.2,0,0.4,0,0.6c0,2.5,4,3.1,5.3,3.3c4.1,0.6,7,1.8,8.9,3.5c1.8,1.7,3.1,5.6,4,11.6
		c0.9,6.4,1.4,12.9,1.4,19.3l-1.8,58.1c-0.6,20-2,32.1-4.3,35.8c-2.2,3.6-6.2,5.9-11.8,6.7c-2.8,0.3-5.5,0.7-8.3,1.3
		c-1.1,0.3-1.9,1.3-1.9,2.5c0,1.2,0.8,2.6,4.4,2.6l0.1,0c4.2-0.5,18.4-0.8,42.2-0.8c1.3,0,7.4,0.4,18.2,1.3
		c6.1,0.4,11.1,0.7,15.1,0.7c17.6,0,31.9-2.9,42.5-8.5c10.6-5.7,19.6-14.2,26.6-25.3c7.1-11.2,10.7-24.5,10.7-39.5
		C975,84.7,967.5,66.8,952.8,52.8z M949.3,105.9c0,11.4-2.3,22.6-6.9,33c-4.2,9.8-10.7,18.3-19.1,24.8c-8.1,6.2-18.8,9.3-31.9,9.3
		c-9.1,0-15.8-1.3-19.8-3.9c-3.7-2.2-6.5-5.7-7.9-9.8c-1.2-4-1.9-10.9-1.9-20.4c0-2,0.2-10.2,0.7-24.2l1-30.2c0.2-6,0.7-14.4,1.4-25
		c0.5-7.3,0.8-12.5,0.8-15.3c0-2.8,0.7-4.6,2-5.1c1.1-0.4,4.9-0.9,17.1-0.9c22,0,38.4,7,48.8,20.9C943.8,72.6,949.4,89,949.3,105.9
		L949.3,105.9z"/>
</g>
<path class="st0" d="M966.9,32.6c0-7.9,6.5-14.2,14.4-14.2c2.5,0,4.9,0.7,7.1,1.9c2.2,1.2,3.9,3,5.1,5.2c2.5,4.4,2.5,9.9-0.1,14.3
	c-1.2,2.2-3,3.9-5.2,5.2c-6.8,3.9-15.5,1.6-19.4-5.2C967.6,37.6,966.9,35.1,966.9,32.6z M969.5,32.6c0,2.1,0.5,4.1,1.6,5.9
	c1,1.8,2.5,3.2,4.2,4.2c1.8,1,3.7,1.5,5.8,1.5c4.2,0,8-2.2,10.1-5.8c2.1-3.6,2.1-8,0-11.6c-2.1-3.6-5.9-5.8-10.1-5.8
	C974.7,21,969.5,26.2,969.5,32.6L969.5,32.6z M982.5,25.1c1.2-0.1,2.4,0.4,3.4,1.1c0.9,0.8,1.3,1.9,1.3,3c0,1.1-0.4,2.2-1.1,3
	c-0.8,0.8-1.9,1.3-3,1.3v0.1c0.6,0.2,1.1,0.5,1.5,0.9c0.7,0.8,1.4,1.7,1.9,2.7l1.8,3h-3.4L984,39c-0.5-1-1.1-2.1-1.7-3
	c-0.4-0.6-0.9-1.1-1.4-1.5c-0.5-0.3-1.1-0.4-1.7-0.4H978v6.3h-2.8V25.1L982.5,25.1z M981.4,31.7c0.7,0,1.5-0.2,2.1-0.6
	c0.5-0.4,0.8-1,0.7-1.6c0-0.6-0.3-1.2-0.8-1.6c-0.6-0.4-1.3-0.6-2.1-0.6H978v4.3L981.4,31.7z"/>
</svg>
