<svg xmlns="http://www.w3.org/2000/svg" viewBox="0 0 256 256">
<rect width="256" height="256" rx="44" fill="#fff"/>
<rect width="256" height="256" rx="44" fill="none" stroke="rgba(0,0,0,0.08)" stroke-width="1.5"/>
<g transform="translate(42, 34) scale(0.185)">
<!-- Hair -->
<path d="M530.2,131.8c3.4-8,11.2-12.8,20-12,8.6.8,15.6,6.8,17.6,15.2,1.2,4.6,50.2,113.4,135.2,114.4C694,97,602,0,463,0s-226.8,92.8-239,239.4c207,33.6,305.4-106.2,306.2-107.6h0Z" fill="#555"/>
<!-- Body -->
<path d="M926,842.2v137.8c0,11-9,20-20,20H20c-11,0-20-9-20-20v-137.8c0-98.4,66.6-183.8,162-207.6l76.2-19.2c37.6,75.8,143.8,271.2,242.2,271.4,37.2,0,72.8-22.8,104.8-55.4,18.6-18.8,35.8-41,51.4-63.8,7.2,1,14.8,1.6,22.6,1.6,14.8,0,29.2-2.4,42.4-7,28.2-9.6,52.6-31.6,65.2-58.6,10.2-21.6,11.8-44.8,5.6-66.6,90.8,26.6,153.6,109.61,153.6,205.2h0Z" fill="#8a9a3a"/>
<!-- Detail -->
<path d="M688.2,588.2c-1.6-5.8,1.6-14.4,5-23.6,4.6-12.6,9.6-26.6,7.4-43.2-1.6-10.8-6.4-19.6-10.4-27.6-2.8-5.4-5.4-10.4-6.4-14.8-.2-.6,0-1.2,0-1.8-43.4,66.6-106.2,114.6-175.6,129.4,4,24.8,12.2,49,29.2,69,19.8,23,47,35,68.8,42.8,15.4,5.4,34.2,10.6,53.4,10.6,9.8,0,19.6-1.4,29.4-4.8,18.2-6.2,34-20.4,42-37.8,6.8-14.4,7.6-30,2.2-43.6-6-15.8-17.6-26-28-35-8.39-6.79-15.4-12.79-17-19.59h0Z" fill="#555"/>
<!-- Skin -->
<path d="M595,757c-41.4,57.2-82.6,89.8-114.6,89.8-58.2,0-155-145-203.2-241.4l59.8-31.6c38.2,24,81.2,38,126,38,1.6,0,3.2-.2,5-.4l.2,1.8c6,36.2,18.4,65.2,38.4,88.6,25.8,30.2,59.2,44.8,86.2,54.6.6.2,1.4.39,2.2.59h0Z" fill="#aaa"/>
<!-- Face (solid head) -->
<path d="M543.4,184.2c-32.2,41-100.6,102-223,102-20.2,0-65.6-2.6-97.6-6.8,2.4,156.4,113.8,292.4,240.2,292.4s233.2-130.2,240.2-282.4c-77.59-.6-140.39-63.6-159.8-105.2h0Z" fill="#aaa"/>
<!-- Eyes -->
<path d="M372.2,362c-11,0-20-8.8-20-20s9-20,20-20h19.2c11.2,0,20,9,20,20s-8.8,20-20,20h-19.2Z" fill="#555"/>
<path d="M548.6,362h-19.2c-11,0-20-8.8-20-20s9-20,20-20h19.2c11,0,20,9,20,20s-9,20-20,20Z" fill="#555"/>
<!-- Mouth -->
<path d="M520.4,468.2c-20,17-40.8,25.6-61.6,25.6-2.2,0-4.4-.2-6.8-.4-32.4-2.8-51.8-25.2-53.8-27.8-7.2-8.4-6-21,2.6-28.2,8.4-7,21-5.8,28,2.6,6.4,7.2,29.6,28.4,65.6-2.4,8.4-7,21-6,28.2,2.4,7.2,8.39,6.2,21-2.2,28.2h0Z" fill="#555"/>
</g>
</svg>
