<svg xmlns="http://www.w3.org/2000/svg" viewBox="0 0 256 256">
<defs><linearGradient id="bg" x1="0" y1="0" x2="1" y2="1"><stop offset="0%" stop-color="#161A22"/><stop offset="100%" stop-color="#0A0D12"/></linearGradient></defs>
<rect width="256" height="256" rx="44" fill="url(#bg)"/>
<rect width="256" height="256" rx="44" fill="none" stroke="rgba(255,255,255,0.08)" stroke-width="1.5"/>
<g transform="translate(18, 18) scale(0.205)" fill-rule="evenodd">
<!-- Luca (left figure) — white -->
<path d="M190.47,49.39C221.01,18.88,263.16,0,309.73,0s88.71,18.88,119.24,49.39c30.53,30.52,49.39,72.68,49.39,119.24s-18.88,88.74-49.39,119.24c-30.52,30.53-72.68,49.39-119.24,49.39s-88.71-18.89-119.26-49.39c-30.5-30.52-49.4-72.68-49.4-119.24s18.9-88.73,49.4-119.24h0Z" fill="#fff" opacity="0.9"/>
<path d="M473.17,644.44c-9.12,0-16.53,7.39-16.53,16.52v370.55c0,26.68-21.78,48.48-48.48,48.48h-34.68c-26,0-47.21-21.21-47.21-47.22v-183.43c0-9.12-7.41-16.52-16.54-16.52s-16.52,7.4-16.52,16.52v183.43c0,26-21.21,47.22-47.22,47.22h-38.32c-26.68,0-48.49-21.81-48.49-48.48v-372.54c0-9.11-7.38-16.52-16.51-16.52s-16.54,7.4-16.54,16.52v62.26c0,18.2-14.85,33.06-33.04,33.06h-44.62C-1.38,754.29,0,708.3,0,673.64,0,577.29,32.58,499.4,87.8,445.29c42.9-42.02,99.66-69.96,165.66-81.27-7.37,12.11-11.61,26.32-11.61,41.51v33.24c0,21.79,8.87,41.58,23.22,55.92,14.33,14.34,34.12,23.22,55.92,23.22h446.82c12.97,0,24.77,5.3,33.32,13.86,8.55,8.55,13.86,20.34,13.86,33.32v33.24c0,12.68-5.17,24.2-13.53,32.55-8.35,8.35-19.87,13.55-32.54,13.55h-295.75Z" fill="#fff" opacity="0.55"/>
<!-- Claire (right figure) — green -->
<path d="M768.9,677.5h-154.04v355.32c0,25.96,21.22,47.18,47.17,47.18h37.81c26,0,47.21-21.21,47.21-47.22v-183.42c0-9.12,7.39-16.52,16.52-16.52s16.53,7.4,16.53,16.52v183.42c0,26.02,21.2,47.22,47.21,47.22h37.81c25.96,0,47.16-21.23,47.16-47.18v-373.84c0-9.11,7.41-16.52,16.53-16.52s16.52,7.4,16.52,16.52v62.26c0,18.2,14.87,33.06,33.06,33.06h44.6c49.04,0,48.48-45.64,48.48-80.65,0-96.35-32.57-174.24-87.78-228.35-57.16-55.99-138.93-86.95-234.3-86.95h-427.33c-12.97,0-24.77,5.29-33.32,13.85-8.54,8.55-13.85,20.35-13.85,33.34v33.24c0,12.68,5.17,24.2,13.54,32.56,8.35,8.36,19.87,13.53,32.54,13.53h446.82c22.09,0,42.17,9.01,56.69,23.54,14.54,14.53,23.54,34.59,23.54,56.69v33.24c0,21.82-8.88,41.59-23.23,55.93-14.32,14.33-34.1,23.23-55.92,23.23h.02Z" fill="#A5BC39" opacity="0.55"/>
<path d="M644.33,49.39C674.86,18.88,717,0,763.57,0s88.74,18.88,119.24,49.39c30.54,30.52,49.4,72.68,49.4,119.24s-18.86,88.74-49.4,119.24c-30.5,30.53-72.66,49.39-119.24,49.39s-88.71-18.89-119.24-49.39c-30.5-30.52-49.4-72.68-49.4-119.24s18.89-88.73,49.4-119.24Z" fill="#A5BC39" opacity="0.9"/>
</g>
</svg>
