<svg xmlns="http://www.w3.org/2000/svg" viewBox="0 0 256 256">
<defs><clipPath id="c"><rect width="256" height="256" rx="44"/></clipPath></defs>
<rect width="256" height="256" rx="44" fill="#fff"/>
<g clip-path="url(#c)"><g transform="scale(0.68257)">
<ellipse fill="#f0edd8" cx="187.53" cy="99.35" rx="64.19" ry="40.08"/>
<ellipse fill="#f0edd8" cx="187.53" cy="99.35" rx="51.35" ry="32.06"/>
<ellipse fill="#e5e0b0" cx="187.53" cy="99.35" rx="41.51" ry="25.92"/>
<ellipse fill="#d5cd80" cx="187.53" cy="99.35" rx="27.35" ry="17.08"/>
<path fill="#b0a030" d="M234.39,210.48c-7,1.28-13.76-1.83-19.83-5.12,10.12-7,20.82-10.8,33.4-11.15.39,7.7-4.46,14.61-13.58,16.28Z"/>
<g>
<path fill="#8a8d86" d="M81.69,173.31c5.97,3.21,13.4,4.82,20.06,6.1,2.52.58,5.52,1.48,8.09,1.78,1.4.4,3.7,1.38,5.18.56,2.86,0,5.57,2.77,8.33.4.16,2.5,3.78,1.68,5.47,1.98,2.8.74,7.42,1.12,10.15,1.92,57.86,10.92,26.05,17.82,47.99,41.75,14.76-10.35-1.95-22.49,21.41-32.86,24.88-11.05,57.13-9.65,87.32-23.44,50.33-17.31,46.62-93.32-2.78-109.23,24.84,38.67,3.45,70.7-41.84,72.09-7.03,1.55-16.81,4.6-22.04,9.47-13.11,15.47-2.66,28.27-13.6,31.21-11.81,3.18-21.44,9.92-26.97,22.39-7.3-11.66-17.25-19.22-30.17-22.69-12.31-5.73,1.42-31.01-27.45-38.36,0,0-32.49-7.19-32.49-7.19-29.79-5.69-34.83-43.74-19.59-66.2-23.86,7.61-35.34,29.27-38.64,50.46-2.19,26.61,16.67,51.62,41.56,59.86ZM241.25,143.25s-.88,4.63-.88,4.63c0,.65.23,2.11-.63,2.38l-.21,15.03c29.36-7.6,15.66-23.14,35.09-29.95-3.78,7.69-5.89,15.15-7.31,24.26,33.62-4.43,61.12-32.49,48.94-67.95,34.48,65.56-38.41,79.46-86.9,82.91,10.36-6.18,4.55-24.13,11.9-31.31ZM54.95,92.63c.87-1.68,1.79-2.94,3.72-5.19-16.64,34.79,13.05,68.09,47.82,72.44.39-.46-8.51-24.4-5.81-23.68,15.06,7,8.42,23.89,33.63,28.24,1.56-.84-.65-9.77-.45-11.29-.04-1.66-.22-5.69-.25-7.4,6.22,8.06,1.19,21.32,10.86,28.68-34.96-3.81-96.79-8.24-96.44-53.97-2.49-9.16,2.48-20,6.92-27.83Z"/>
<path fill="#8a8d86" d="M279.6,220.79c-9.24,15.96-27.1,18.99-41.97,27.02-5.25-22.99,42.36-7.31,35.76-57.4-17.14.85-7.11,36.36-56.14,26.96-7.1,35.03,42.24,49.42,29.08,87.88,10.63-7.68,19.08-20.51,9.05-31.95,10.64,3.76,20.89,7.72,31.54,2.27-7.14-3.79-11.55-11.48-11.5-19.17,9.35,14.24,24,18.34,35.92,6.47-20.98-2.71-29.26-21.29-31.74-42.07Z"/>
<path fill="#8a8d86" d="M200.55,245.33c-4.44-.73-8.74,2.7-11.71,4.15-18.75-8.03-43.23,8-45.4,28.77,13.31-14.78,29.13-9.78,43.44-22.46,10.09,23.24,36.27,13.8,39.93,37.52-7.2-11.19-22.45-14.85-34.17-18.5-2.12-.66-5.95-4.2-5.95-4.2l-1.69,5.52c-.79,1.4-.52,3.49-.34,5.65-.3-.9-.76-1.85-1.36-2.82-17.43,12.29-28.83,40.47-2.43,47.41-8.31-13.18-9-28.41,1.98-37.57-9.89,22.53,14.59,33.14,5.11,55.06,15.22-8.75,28.47-28.78,16.62-43.25,11.76,1.54,16.32,11.91,12.87,22.23,32.64-21.1,22.4-72.97-16.91-77.51Z"/>
<path fill="#8a8d86" d="M155.45,220.74c-35.26,5.13-33.12-22.21-55.11-32.74-1.42,52.23,51.55,40.06,38.18,55.76-6.31,5.26-12.73,18.64-4.63,24.66-.34-2.66-.36-5.85.84-8.32,12.41-17.08,26.89-10.02,20.72-39.34Z"/>
<path fill="#8a8d86" d="M101.4,238.35c-3.77-.36-9.17,27.95-40.68,20.95,17.36-5.38,27.12-23.85,20.75-40.41,4.29.46,7.56.57,11.16-.73-9.17-3.49-16.2-6.73-23.96-12.68,4.16,14.55,3.82,35.15-12.81,41.46-15.1,4.33-6.12,7.06,1.06,13.98,2.5.66,5.82,2.86,8.15,3.98,1,.28,3.47,1.04,4.07,1.97,8.3,1.21,18.65,1.76,25.54-3.85,13.05-11.42,10.44-24.31,6.74-24.67Z"/>
<path fill="#8a8d86" d="M300.86,205.43c-31.08,10.6-2.72,67.3,23.81,45.34-20.24-6.48-25.85-25.62-23.81-45.34Z"/>
<path fill="#8a8d86" d="M120.03,257.58c-20.37,8.85-15.18,39.92,5.59,44.16-9.35-14.31-11.67-28.98-5.59-44.16Z"/>
<path fill="#8a8d86" d="M286.17,202.27c15.34-3.2,22.26-16.16,21.87-29.49-16.95,14.27-22.89,3.44-21.87,29.49Z"/>
<path fill="#8a8d86" d="M62.27,173.84c2.92,12.9,9.84,27.46,24.82,28.76-3.37-27.22-3.34-13.36-21.34-27.96l-3.48-.8Z"/>
<path fill="#8a8d86" d="M154.82,287.02c-18.27,5.88-14.6,28.64,1.68,34.82-5.89-12.15-9.58-22.73-1.68-34.82Z"/>
</g>
<path fill="#b0a030" d="M259.25,111.04l-5.5,1.38,5.5,1.38c2.81.71,5,2.9,5.7,5.7l1.38,5.5,1.38-5.5c.71-2.81,2.9-5,5.7-5.7l5.5-1.38-5.5-1.38c-2.81-.71-5-2.9-5.7-5.7l-1.38-5.5-1.38,5.5c-.71,2.81-2.9,5-5.7,5.7Z"/>
<path fill="#b0a030" d="M251.93,57.88l-4.77,1.2,4.77,1.2c2.43.61,4.33,2.51,4.94,4.94l1.2,4.77,1.2-4.77c.61-2.43,2.51-4.33,4.94-4.94l4.77-1.2-4.77-1.2c-2.43-.61-4.33-2.51-4.94-4.94l-1.2-4.77-1.2,4.77c-.61,2.43-2.51,4.33-4.94,4.94Z"/>
<path fill="#b0a030" d="M89.19,105.16l-5.22,1.31,5.22,1.31c2.66.67,4.74,2.75,5.41,5.41l1.31,5.22,1.31-5.22c.67-2.66,2.75-4.74,5.41-5.41l5.22-1.31-5.22-1.31c-2.66-.67-4.74-2.75-5.41-5.41l-1.31-5.22-1.31,5.22c-.67,2.66-2.75,4.74-5.41,5.41Z"/>
<path fill="#b0a030" d="M138.75,57.37l-6.78,1.7,6.78,1.7c3.46.87,6.16,3.57,7.02,7.02l1.7,6.78,1.7-6.78c.87-3.46,3.57-6.16,7.02-7.02l6.78-1.7-6.78-1.7c-3.46-.87-6.16-3.57-7.02-7.02l-1.7-6.78-1.7,6.78c-.87,3.46-3.57,6.16-7.02,7.02Z"/>
<path fill="#b0a030" d="M107.62,33.92l-4.89,1.23,4.89,1.23c2.49.63,4.44,2.57,5.06,5.06l1.23,4.89,1.23-4.89c.63-2.49,2.57-4.44,5.06-5.06l4.89-1.23-4.89-1.23c-2.49-.63-4.44-2.57-5.06-5.06l-1.23-4.89-1.23,4.89c-.63,2.49-2.57,4.44-5.06,5.06Z"/>
<g>
<polygon fill="#c8b840" points="186.81 97.75 167.59 118.41 188.24 99.19 207.46 78.54 186.81 97.75"/>
<polygon fill="#c8b840" points="188.24 97.75 167.59 78.54 186.81 99.19 207.46 118.41 188.24 97.75"/>
</g>
<path fill="#b0a030" d="M222.01,79.18l-3.41.86,3.41.86c1.74.44,3.1,1.8,3.54,3.54l.86,3.41.86-3.41c.44-1.74,1.8-3.1,3.54-3.54l3.41-.86-3.41-.86c-1.74-.44-3.1-1.8-3.54-3.54l-.86-3.41-.86,3.41c-.44,1.74-1.8,3.1-3.54,3.54Z"/>
<path fill="#b0a030" d="M160.33,137.89l-3.41.86,3.41.86c1.74.44,3.1,1.8,3.54,3.54l.86,3.41.86-3.41c.44-1.74,1.8-3.1,3.54-3.54l3.41-.86-3.41-.86c-1.74-.44-3.1-1.8-3.54-3.54l-.86-3.41-.86,3.41c-.44,1.74-1.8,3.1-3.54,3.54Z"/>
<path fill="#b0a030" d="M167.89,94.73l-46.59,3.74,46.53,3.6c8.45.65,15.18,7.35,15.87,15.8l3.82,46.82,3.98-46.88c.71-8.43,7.43-15.1,15.86-15.75l46.38-3.59-46.44-3.73c-8.41-.68-15.1-7.34-15.82-15.74l-3.97-46.75-3.81,46.68c-.69,8.43-7.39,15.12-15.82,15.8Z"/>
<path fill="#b0a030" opacity=".35" d="M176.79,96.43l-25.48,2.05,25.45,1.97c4.62.36,8.3,4.02,8.68,8.64l2.09,25.6,2.18-25.64c.39-4.61,4.06-8.26,8.68-8.61l25.36-1.96-25.4-2.04c-4.6-.37-8.26-4.01-8.65-8.61l-2.17-25.57-2.09,25.53c-.38,4.61-4.04,8.27-8.65,8.64Z"/>
</g></g>
<rect width="256" height="256" rx="44" fill="none" stroke="rgba(0,0,0,0.08)" stroke-width="1.5"/>
</svg>
