<svg xmlns="http://www.w3.org/2000/svg" viewBox="0 0 256 256">
<defs>
<clipPath id="c"><rect width="256" height="256" rx="44"/></clipPath>
<clipPath id="odin-eye"><path d="M195.88,195.85c-9.43,1.72-18.53-2.47-26.71-6.9,13.63-9.43,28.04-14.55,45-15.03.53,10.38-6.01,19.68-18.29,21.93Z"/></clipPath>
</defs>
<rect width="256" height="256" rx="44" fill="#fff"/>
<g clip-path="url(#c)"><g transform="translate(28.8, 16.4) scale(0.68)">
<path fill="#dcb426" d="M195.88,195.85c-9.43,1.72-18.53-2.47-26.71-6.9,13.63-9.43,28.04-14.55,45-15.03.53,10.38-6.01,19.68-18.29,21.93Z"/>
<path fill="#f2c629" d="M195.88,195.85c-7.23,1.32-14.28-.84-20.86-3.92-.98-.46,12.46-7.84,22.22-10.71,10.07-2.96,16.48-1.39,16.15-.25-2.08,7.31-8.11,13.16-17.51,14.88Z"/>
<g>
<polygon fill="#dcb426" points="145.53 70.8 111.65 107.21 148.06 73.33 181.94 36.92 145.53 70.8"/>
<polygon fill="#dcb426" points="148.06 70.8 111.65 36.92 145.53 73.33 181.94 107.21 148.06 70.8"/>
</g>
<rect fill="#fff" x="118.43" y="44.16" width="55.81" height="55.81" transform="translate(93.82 -82.37) rotate(45)"/>
<path fill="#c3922c" d="M198.34,37.45l-5.42,1.36,5.42,1.36c2.76.69,4.92,2.85,5.62,5.62l1.36,5.42,1.36-5.42c.69-2.76,2.85-4.92,5.62-5.62l5.42-1.36-5.42-1.36c-2.76-.69-4.92-2.85-5.62-5.62l-1.36-5.42-1.36,5.42c-.69,2.76-2.85,4.92-5.62,5.62Z"/>
<path fill="#c3922c" d="M77.04,17.49l-8.59,2.16,8.59,2.16c4.38,1.1,7.8,4.52,8.9,8.9l2.16,8.59,2.16-8.59c1.1-4.38,4.52-7.8,8.9-8.9l8.59-2.16-8.59-2.16c-4.38-1.1-7.8-4.52-8.9-8.9l-2.16-8.59-2.16,8.59c-1.1,4.38-4.52,7.8-8.9,8.9Z"/>
<path fill="#dcb426" d="M97.97,70.46l-19.94,1.6,19.79,1.53c25.21,1.95,45.27,21.93,47.33,47.13l1.64,20.1,1.72-20.27c2.13-25.14,22.17-45.02,47.32-46.97l19.73-1.53-19.88-1.6c-25.09-2.01-45.05-21.88-47.17-46.96l-1.71-20.21-1.64,20.05c-2.05,25.15-22.03,45.1-47.19,47.12Z"/>
<path fill="#fff" d="M118.86,72.06h-.09s0,0,0,0c14.92,1.16,26.79,12.98,28.01,27.89v.13s.03-.22.03-.22c1.26-14.87,13.12-26.64,28-27.79h0s-.09,0-.09,0c-14.85-1.19-26.65-12.95-27.91-27.79l-.02-.22v.13c-1.23,14.88-13.05,26.69-27.93,27.88Z"/>
<g clip-path="url(#odin-eye)">
<circle fill="#222327" cx="193.02" cy="181.21" r="7.29"/>
<circle fill="#fff" cx="191.92" cy="180.22" r="2.86"/>
</g>
<path fill="#59595d" d="M41.73,157.64c5.97,3.21,13.4,4.82,20.06,6.1,2.52.58,5.52,1.48,8.09,1.78,1.4.4,3.7,1.38,5.18.56,2.86,0,5.57,2.77,8.33.4.16,2.5,3.78,1.68,5.47,1.98,2.8.74,7.42,1.12,10.15,1.92,57.86,10.92,26.05,17.82,47.99,41.75,14.76-10.35-1.95-22.49,21.41-32.86,24.88-11.05,57.13-9.65,87.32-23.44,50.33-17.31,46.62-93.32-2.78-109.23,24.84,38.67,3.45,70.7-41.84,72.09-7.03,1.55-16.81,4.6-22.04,9.47-13.11,15.47-2.66,28.27-13.6,31.21-11.81,3.18-21.44,9.92-26.97,22.39-7.3-11.66-17.25-19.22-30.17-22.69-12.31-5.73,1.42-31.01-27.45-38.36,0,0-32.49-7.19-32.49-7.19-29.79-5.69-34.83-43.74-19.59-66.2C14.95,54.93,3.48,76.58.17,97.78c-2.19,26.61,16.67,51.62,41.56,59.86ZM201.29,127.58s-.88,4.63-.88,4.63c0,.65.23,2.11-.63,2.38l-.21,15.03c29.36-7.6,15.66-23.14,35.09-29.95-3.78,7.69-5.89,15.15-7.31,24.26,33.62-4.43,61.12-32.49,48.94-67.95,34.48,65.56-38.41,79.46-86.9,82.91,10.36-6.18,4.55-24.13,11.9-31.31ZM14.99,76.97c.87-1.68,1.79-2.94,3.72-5.19-16.64,34.79,13.05,68.09,47.82,72.44.39-.46-8.51-24.4-5.81-23.68,15.06,7,8.42,23.89,33.63,28.24,1.56-.84-.65-9.77-.45-11.29-.04-1.66-.22-5.69-.25-7.4,6.22,8.06,1.19,21.32,10.86,28.68-34.96-3.81-96.79-8.24-96.44-53.97-2.49-9.16,2.48-20,6.92-27.83Z"/>
<path fill="#575757" d="M239.64,205.13c-9.24,15.96-27.1,18.99-41.97,27.02-5.25-22.99,42.36-7.31,35.76-57.4-17.14.85-7.11,36.36-56.14,26.96-7.1,35.03,42.24,49.42,29.08,87.88,10.63-7.68,19.08-20.51,9.05-31.95,10.64,3.76,20.89,7.72,31.54,2.27-7.14-3.79-11.55-11.48-11.5-19.17,9.35,14.24,24,18.34,35.92,6.47-20.98-2.71-29.26-21.29-31.74-42.07Z"/>
<path fill="#4d4d4d" d="M160.59,229.66c-4.44-.73-8.74,2.7-11.71,4.15-18.75-8.03-43.23,8-45.4,28.77,13.31-14.78,29.13-9.78,43.44-22.46,10.09,23.24,36.27,13.8,39.93,37.52-7.2-11.19-22.45-14.85-34.17-18.5-2.12-.66-5.95-4.2-5.95-4.2l-1.69,5.52c-.79,1.4-.52,3.49-.34,5.65-.3-.9-.76-1.85-1.36-2.82-17.43,12.29-28.83,40.47-2.43,47.41-8.31-13.18-9-28.41,1.98-37.57-9.89,22.53,14.59,33.14,5.11,55.06,15.22-8.75,28.47-28.78,16.62-43.25,11.76,1.54,16.32,11.91,12.87,22.23,32.64-21.1,22.4-72.97-16.91-77.51Z"/>
<path fill="#575757" d="M115.49,205.08c-35.26,5.13-33.12-22.21-55.11-32.74-1.42,52.23,51.55,40.06,38.18,55.76-6.31,5.26-12.73,18.64-4.63,24.66-.34-2.66-.36-5.85.84-8.32,12.41-17.08,26.89-10.02,20.72-39.34Z"/>
<path fill="#575757" d="M61.44,222.69c-3.77-.36-9.17,27.95-40.68,20.95,17.36-5.38,27.12-23.85,20.75-40.41,4.29.46,7.56.57,11.16-.73-9.17-3.49-16.2-6.73-23.96-12.68,4.16,14.55,3.82,35.15-12.81,41.46-15.1,4.33-6.12,7.06,1.06,13.98,2.5.66,5.82,2.86,8.15,3.98,1,.28,3.47,1.04,4.07,1.97,8.3,1.21,18.65,1.76,25.54-3.85,13.05-11.42,10.44-24.31,6.74-24.67Z"/>
<path fill="#575757" d="M260.9,189.77c-31.08,10.6-2.72,67.3,23.81,45.34-20.24-6.48-25.85-25.62-23.81-45.34Z"/>
<path fill="#575757" d="M80.07,241.92c-20.37,8.85-15.18,39.92,5.59,44.16-9.35-14.31-11.67-28.98-5.59-44.16Z"/>
<path fill="#575757" d="M246.21,186.61c15.34-3.2,22.26-16.16,21.87-29.49-16.95,14.27-22.89,3.44-21.87,29.49Z"/>
<path fill="#575757" d="M22.31,158.18c2.92,12.9,9.84,27.46,24.82,28.76-3.37-27.22-3.34-13.36-21.34-27.96l-3.48-.8Z"/>
<path fill="#4d4d4d" d="M114.86,271.36c-18.27,5.88-14.6,28.64,1.68,34.82-5.89-12.15-9.58-22.73-1.68-34.82Z"/>
</g></g>
<rect width="256" height="256" rx="44" fill="none" stroke="rgba(0,0,0,0.08)" stroke-width="1.5"/>
</svg>
