<svg xmlns="http://www.w3.org/2000/svg" viewBox="0 0 256 256">
<defs><linearGradient id="bg" x1="0" y1="0" x2="1" y2="1"><stop offset="0%" stop-color="#161A22"/><stop offset="100%" stop-color="#0A0D12"/></linearGradient></defs>
<rect width="256" height="256" rx="44" fill="url(#bg)"/>
<rect width="256" height="256" rx="44" fill="none" stroke="rgba(255,255,255,0.08)" stroke-width="1.5"/>
<path d="M140 72 L150 114 L192 124 L150 134 L140 176 L130 134 L88 124 L130 114 Z" fill="#A5BC39"/>
<path d="M76 56 L82 78 L104 84 L82 90 L76 112 L70 90 L48 84 L70 78 Z" fill="#fff" opacity="0.85"/>
<path d="M88 152 L93 170 L111 175 L93 180 L88 198 L83 180 L65 175 L83 170 Z" fill="#fff" opacity="0.6"/>
<path d="M188 60 L191 70 L201 73 L191 76 L188 86 L185 76 L175 73 L185 70 Z" fill="#fff" opacity="0.45"/>
</svg>
