<svg xmlns="http://www.w3.org/2000/svg" viewBox="0 0 256 256">
<defs><linearGradient id="bg" x1="0" y1="0" x2="1" y2="1"><stop offset="0%" stop-color="#161A22"/><stop offset="100%" stop-color="#0A0D12"/></linearGradient></defs>
<rect width="256" height="256" rx="44" fill="url(#bg)"/>
<rect width="256" height="256" rx="44" fill="none" stroke="rgba(255,255,255,0.08)" stroke-width="1.5"/>
<rect x="56" y="62" width="144" height="16" rx="3" fill="#6BA0CC" opacity="0.95"/>
<rect x="56" y="84" width="108" height="16" rx="3" fill="#6BA0CC" opacity="0.75"/>
<rect x="82" y="106" width="118" height="16" rx="3" fill="#6BA0CC" opacity="0.6"/>
<rect x="56" y="128" width="72" height="16" rx="3" fill="#8BBAD6" opacity="0.55"/>
<rect x="96" y="150" width="80" height="16" rx="3" fill="#8BBAD6" opacity="0.4"/>
<rect x="56" y="178" width="26" height="14" rx="2" fill="#A5BC39"/>
<rect x="86" y="178" width="26" height="14" rx="2" fill="#A5BC39" opacity="0.85"/>
<rect x="116" y="178" width="26" height="14" rx="2" fill="#D4C23A" opacity="0.8"/>
<rect x="146" y="178" width="26" height="14" rx="2" fill="#D9A634" opacity="0.7"/>
<rect x="176" y="178" width="24" height="14" rx="2" fill="#C96832" opacity="0.6"/>
<line x1="130" y1="50" x2="130" y2="172" stroke="#A5BC39" stroke-width="3" opacity="0.9"/>
<circle cx="130" cy="48" r="4" fill="#A5BC39"/>
</svg>
