<svg xmlns="http://www.w3.org/2000/svg" viewBox="0 0 256 256">
<rect width="256" height="256" rx="44" fill="#fff"/>
<rect width="256" height="256" rx="44" fill="none" stroke="rgba(0,0,0,0.08)" stroke-width="1.5"/>
<rect x="56" y="62" width="144" height="16" rx="3" fill="#5A8DB8"/>
<rect x="56" y="84" width="108" height="16" rx="3" fill="#5A8DB8" opacity="0.8"/>
<rect x="82" y="106" width="118" height="16" rx="3" fill="#6BA0CC" opacity="0.7"/>
<rect x="56" y="128" width="72" height="16" rx="3" fill="#7BAED0" opacity="0.6"/>
<rect x="96" y="150" width="80" height="16" rx="3" fill="#8BBAD6" opacity="0.5"/>
<rect x="56" y="178" width="26" height="14" rx="2" fill="#8a9a3a"/>
<rect x="86" y="178" width="26" height="14" rx="2" fill="#A5BC39"/>
<rect x="116" y="178" width="26" height="14" rx="2" fill="#C4B032"/>
<rect x="146" y="178" width="26" height="14" rx="2" fill="#C99030"/>
<rect x="176" y="178" width="24" height="14" rx="2" fill="#B85A2A"/>
<line x1="130" y1="50" x2="130" y2="172" stroke="#8a9a3a" stroke-width="3" opacity="0.9"/>
<circle cx="130" cy="48" r="4" fill="#8a9a3a"/>
</svg>