<svg xmlns="http://www.w3.org/2000/svg" viewBox="0 0 256 256">
<rect width="256" height="256" rx="44" fill="#fff"/>
<rect width="256" height="256" rx="44" fill="none" stroke="rgba(0,0,0,0.08)" stroke-width="1.5"/>
<g transform="translate(45.5, 53) scale(0.75)">
<path fill="#0E1118" opacity="0.85" d="M25.5,18.3c3.2,8.3,4.7,30.9,4.7,68l-0.5,35.2l3.8,0.9c7.2,1.7,14.6,2.6,22.1,2.7c0.8,0,1.6,0,2.4,0 c-0.6-11.7-0.8-26.3-0.8-44c0-26.7,0.9-44.1,2.6-52.2c1.8-8.1,4.3-13.8,7.7-17c3.4-3.2,8.7-5.2,15.8-5.9c3.2-0.3,4.8-1.4,4.8-3.2 C88.1,0.9,86,0,81.7,0H6.3C2.1,0,0,1,0,3.1c0,1.7,1.7,2.5,5.1,2.5C15.5,5.8,22.3,10,25.5,18.3z"/>
<path fill="#0E1118" opacity="0.85" d="M151.7,6.2c9.2,0,16.2,3.5,20.9,10.6c4.7,7.1,7.1,22,7.1,44.7c0,23.2-0.4,42.2-1.1,56.8c3,1.2,6,2.6,9,4 c1-13.6,1.4-29.1,1.5-46.6c0-18.8,0.6-33.1,1.7-42.9c1.1-9.7,3.4-16.4,7-20.2c3.6-3.7,9.1-6.1,16.8-7.2c2.2-0.3,3.3-1.2,3.3-2.6 c0-2-1.4-3-4.1-3h-60.2c-4.9,0-7.4,1-7.4,3C146.2,5.1,148,6.2,151.7,6.2z"/>
<path fill="#A5BC39" d="M135.8,126c-28.6,0-47.6,15.8-80.2,15.8c-8.7,0-17.3-1.1-25.7-3.1c0.7,13,2.8,23.1,6.3,30.3 c4.4,9.2,12.7,16.6,25,22.1c12.3,5.6,27.1,8.4,44.6,8.4c17,0,31.4-2.5,43.1-7.4c11.7-5,20.4-11.5,26.2-19.6 c5.3-7.3,8.9-18,10.8-32.2C165.3,129.6,149.5,126,135.8,126z"/>
</g></svg>